<svg xmlns="http://www.w3.org/2000/svg" viewBox="0 0 200 200">
  <defs>
    <linearGradient id="primaryGradient" x1="0%" y1="0%" x2="100%" y2="100%">
      <stop offset="0%" stop-color="#8b5cf6"/>
      <stop offset="30%" stop-color="#a855f7"/>
      <stop offset="60%" stop-color="#ec4899"/>
      <stop offset="100%" stop-color="#06b6d4"/>
    </linearGradient>
    <linearGradient id="secondaryGradient" x1="0%" y1="0%" x2="100%" y2="100%">
      <stop offset="0%" stop-color="#f59e0b"/>
      <stop offset="50%" stop-color="#ef4444"/>
      <stop offset="100%" stop-color="#dc2626"/>
    </linearGradient>
    <linearGradient id="backgroundGradient" x1="0%" y1="0%" x2="100%" y2="100%">
      <stop offset="0%" stop-color="#1f2937"/>
      <stop offset="100%" stop-color="#111827"/>
    </linearGradient>
    <filter id="dropShadow">
      <feDropShadow dx="0" dy="4" stdDeviation="8" flood-opacity="0.3"/>
    </filter>
    <filter id="glow" x="-50%" y="-50%" width="200%" height="200%">
      <feGaussianBlur stdDeviation="4" result="coloredBlur"/>
      <feMerge> 
        <feMergeNode in="coloredBlur"/>
        <feMergeNode in="SourceGraphic"/>
      </feMerge>
    </filter>
  </defs>
  
  <!-- Background -->
  <rect width="200" height="200" fill="url(#backgroundGradient)" rx="20"/>
  
  <!-- Outer glow ring -->
  <circle cx="100" cy="100" r="85" fill="none" stroke="url(#primaryGradient)" stroke-width="2" opacity="0.3"/>
  
  <!-- Main vinyl record -->
  <circle cx="100" cy="100" r="75" fill="url(#primaryGradient)" filter="url(#dropShadow)"/>
  <circle cx="100" cy="100" r="65" fill="rgba(255,255,255,0.1)"/>
  <circle cx="100" cy="100" r="55" fill="rgba(255,255,255,0.05)"/>
  <circle cx="100" cy="100" r="45" fill="rgba(255,255,255,0.03)"/>
  <circle cx="100" cy="100" r="12" fill="rgba(255,255,255,0.9)" filter="url(#dropShadow)"/>
  
  <!-- Vinyl grooves -->
  <g fill="none" stroke="rgba(255,255,255,0.1)" stroke-width="0.5">
    <circle cx="100" cy="100" r="70"/>
    <circle cx="100" cy="100" r="60"/>
    <circle cx="100" cy="100" r="50"/>
    <circle cx="100" cy="100" r="40"/>
    <circle cx="100" cy="100" r="30"/>
    <circle cx="100" cy="100" r="20"/>
  </g>
  
  <!-- Musical notes -->
  <g fill="url(#secondaryGradient)" filter="url(#glow)">
    <!-- Left note group -->
    <ellipse cx="60" cy="140" rx="8" ry="5" transform="rotate(-15 60 140)"/>
    <rect x="66" y="105" width="4" height="35" rx="2"/>
    <ellipse cx="75" cy="100" rx="6" ry="4"/>
    
    <!-- Right note group -->
    <ellipse cx="140" cy="130" rx="8" ry="5" transform="rotate(15 140 130)"/>
    <rect x="130" y="95" width="4" height="35" rx="2"/>
    <ellipse cx="125" cy="90" rx="6" ry="4"/>
    
    <!-- Connecting beam -->
    <path d="M66 105 L130 95 L134 99 L70 109 Z" opacity="0.8"/>
    
    <!-- Additional decorative notes -->
    <ellipse cx="45" cy="75" rx="4" ry="3" transform="rotate(-25 45 75)"/>
    <rect x="48" y="65" width="2" height="15" rx="1"/>
    
    <ellipse cx="155" cy="65" rx="4" ry="3" transform="rotate(25 155 65)"/>
    <rect x="150" y="55" width="2" height="15" rx="1"/>
  </g>
  
  <!-- Sound waves -->
  <g stroke="rgba(255,255,255,0.6)" stroke-width="3" fill="none" opacity="0.7">
    <!-- Right waves -->
    <path d="M150 100 Q160 90, 160 100 Q160 110, 150 100"/>
    <path d="M155 100 Q170 85, 170 100 Q170 115, 155 100"/>
    <path d="M160 100 Q180 80, 180 100 Q180 120, 160 100"/>
    
    <!-- Left waves -->
    <path d="M50 100 Q40 90, 40 100 Q40 110, 50 100"/>
    <path d="M45 100 Q30 85, 30 100 Q30 115, 45 100"/>
    <path d="M40 100 Q20 80, 20 100 Q20 120, 40 100"/>
  </g>
  
  <!-- Sparkles and stars -->
  <g fill="rgba(255,255,255,0.9)">
    <!-- Large sparkles -->
    <g transform="translate(35,35)">
      <path d="M0,-8 L2,0 L8,0 L3,3 L5,9 L0,6 L-5,9 L-3,3 L-8,0 L-2,0 Z" opacity="0.8">
        <animateTransform attributeName="transform" type="rotate" values="0;360" dur="8s" repeatCount="indefinite"/>
      </path>
    </g>
    
    <g transform="translate(165,40)">
      <path d="M0,-6 L1.5,0 L6,0 L2.5,2.5 L4,7 L0,4.5 L-4,7 L-2.5,2.5 L-6,0 L-1.5,0 Z" opacity="0.7">
        <animateTransform attributeName="transform" type="rotate" values="360;0" dur="10s" repeatCount="indefinite"/>
      </path>
    </g>
    
    <g transform="translate(40,165)">
      <path d="M0,-5 L1,0 L5,0 L2,2 L3,6 L0,4 L-3,6 L-2,2 L-5,0 L-1,0 Z" opacity="0.6">
        <animateTransform attributeName="transform" type="rotate" values="0;360" dur="12s" repeatCount="indefinite"/>
      </path>
    </g>
    
    <!-- Small dots -->
    <circle cx="30" cy="60" r="2" opacity="0.7">
      <animate attributeName="opacity" values="0.7;0.2;0.7" dur="3s" repeatCount="indefinite"/>
    </circle>
    <circle cx="170" cy="70" r="1.5" opacity="0.6">
      <animate attributeName="opacity" values="0.6;0.1;0.6" dur="4s" repeatCount="indefinite"/>
    </circle>
    <circle cx="25" cy="140" r="1" opacity="0.8">
      <animate attributeName="opacity" values="0.8;0.3;0.8" dur="2.5s" repeatCount="indefinite"/>
    </circle>
    <circle cx="175" cy="130" r="1.2" opacity="0.5">
      <animate attributeName="opacity" values="0.5;0.1;0.5" dur="3.5s" repeatCount="indefinite"/>
    </circle>
  </g>
  
  <!-- Central logo text (optional) -->
  <text x="100" y="105" text-anchor="middle" font-family="Arial, sans-serif" font-size="12" font-weight="bold" fill="rgba(255,255,255,0.4)">MUSIC</text>
</svg>
